<?xml version="1.0" encoding="UTF-8" standalone="no"?>
<svg
   xmlns:dc="http://purl.org/dc/elements/1.1/"
   xmlns:cc="http://creativecommons.org/ns#"
   xmlns:rdf="http://www.w3.org/1999/02/22-rdf-syntax-ns#"
   xmlns:svg="http://www.w3.org/2000/svg"
   xmlns="http://www.w3.org/2000/svg"
   viewBox="0 0 240 240"
   height="240"
   width="240"
   xml:space="preserve"
   id="svg2"
   version="1.1"><metadata
     id="metadata8"><rdf:RDF><cc:Work
         rdf:about=""><dc:format>image/svg+xml</dc:format><dc:type
           rdf:resource="http://purl.org/dc/dcmitype/StillImage" /></cc:Work></rdf:RDF></metadata><defs
     id="defs6"><linearGradient
       id="linearGradient36"
       spreadMethod="pad"
       gradientTransform="matrix(130,0,0,-130,25,90)"
       gradientUnits="userSpaceOnUse"
       y2="0"
       x2="1"
       y1="0"
       x1="0"><stop
         id="stop24"
         offset="0"
         style="stop-opacity:1;stop-color:#be8036" /><stop
         id="stop26"
         offset="0.189944"
         style="stop-opacity:1;stop-color:#be8036" /><stop
         id="stop28"
         offset="0.5"
         style="stop-opacity:1;stop-color:#fdf5a6" /><stop
         id="stop30"
         offset="0.832402"
         style="stop-opacity:1;stop-color:#be8036" /><stop
         id="stop32"
         offset="0.91332692"
         style="stop-opacity:1;stop-color:#be8036" /><stop
         id="stop34"
         offset="1"
         style="stop-opacity:1;stop-color:#be8036" /></linearGradient></defs><g
     transform="matrix(1.3333333,0,0,-1.3333333,0,240)"
     id="g10"><g
       id="g12"><g
         id="g14"><g
           id="g20"><g
             id="g22"><path
               id="path38"
               style="fill:url(#linearGradient36);stroke:none"
               d="m 93.514,131.021 c -9.283,0 -17.722,-3.655 -23.964,-9.604 v 0 l -0.298,-0.292 -0.59,-0.591 -0.293,-0.298 -9.201,-9.198 v 14.214 H 48.945 V 73.331 h 10.223 v 14.215 l 9.201,-9.199 0.293,-0.298 0.59,-0.591 0.298,-0.292 c 6.242,-5.949 14.681,-9.604 23.964,-9.604 v 0 h 0.068 c 3.913,0.006 7.681,0.664 11.19,1.873 v 0 c -0.237,-0.005 -0.479,-0.012 -0.715,-0.012 v 0 c -7.933,0 -15.153,3.11 -20.506,8.171 v 0 l -1.214,1.22 -20.478,20.478 20.478,20.477 1.214,1.221 c 5.353,5.06 12.573,8.17 20.506,8.17 v 0 c 0.236,0 0.478,-0.006 0.715,-0.012 v 0 c -3.509,1.209 -7.277,1.867 -11.19,1.873 v 0 z m -3.519,-8.676 c 2.288,0.719 4.723,1.108 7.253,1.108 v 0 c 0.658,0 1.316,-0.029 1.963,-0.079 v 0 c 3.401,-0.276 6.606,-1.254 9.469,-2.789 v 0 c 6.15,-3.318 10.705,-9.21 12.201,-16.238 v 0 c 0.314,-1.49 0.494,-3.031 0.523,-4.605 v 0 c 0.005,-0.152 0.005,-0.298 0.005,-0.45 v 0 c 0,-0.153 0,-0.298 -0.005,-0.45 v 0 c -0.023,-0.911 -0.119,-1.805 -0.282,-2.677 v 0 c -0.579,-3.205 -2.041,-6.106 -4.133,-8.434 v 0 c 0.327,-0.208 0.647,-0.41 0.978,-0.607 v 0 c 2.199,-1.36 4.521,-2.671 6.95,-3.914 v 0 c 0.197,-0.1 0.395,-0.202 0.597,-0.297 v 0 c 2.912,3.8 4.835,8.4 5.386,13.416 v 0 c 0.101,0.972 0.158,1.962 0.158,2.963 v 0 c 0,0.888 -0.045,1.765 -0.13,2.631 v 0 c -1.321,13.675 -12.848,24.369 -26.871,24.369 v 0 c -5.151,0 -9.969,-1.439 -14.062,-3.947 m -0.52,-3.171 c 0.956,-2.475 2.165,-4.977 3.604,-7.456 v 0 c 4.836,-8.294 11.797,-15.637 20.726,-21.867 v 0 c -7.394,7.203 -12.86,15.148 -16.273,23.671 v 0 c -0.939,2.362 -1.704,4.713 -2.272,7.024 v 0 c -2.024,-0.186 -3.963,-0.652 -5.785,-1.372 M 77.049,99.292 c 0,-9.025 4.431,-17.02 11.239,-21.918 v 0 c 0.552,-0.405 1.12,-0.781 1.704,-1.136 v 0 c 3.722,-2.277 8.041,-3.677 12.668,-3.908 v 0 C 85.016,81.647 86.917,96.565 86.917,96.565 v 0 c 0,0 19.626,-24.273 58.06,-24.273 v 0 c -8.158,2.428 -15.227,5.296 -21.339,8.416 v 0 c -2.535,1.294 -4.908,2.632 -7.123,4.01 v 0 c -0.551,0.331 -1.096,0.674 -1.626,1.023 v 0 c -12.544,8.102 -19.926,17.161 -24.239,24.566 v 0 c -2.092,3.598 -3.463,6.809 -4.346,9.327 v 0 C 80.63,114.687 77.049,107.411 77.049,99.292 M 105.473,60.04 c -1.246,-1.246 -1.196,-2.907 -1.196,-4.684 v 0 c 0,-1.776 -0.05,-3.438 1.196,-4.683 v 0 c 0.863,-0.863 1.859,-1.329 3.304,-1.329 v 0 c 1.445,0 2.441,0.466 3.304,1.329 v 0 c 1.246,1.245 1.197,2.907 1.197,4.683 v 0 c 0,1.777 0.049,3.438 -1.197,4.684 v 0 c -0.863,0.863 -1.859,1.328 -3.304,1.328 v 0 c -1.445,0 -2.441,-0.465 -3.304,-1.328 m 2.142,-7.574 c -0.266,0.35 -0.432,0.731 -0.432,2.89 v 0 c 0,2.159 0.166,2.558 0.432,2.906 v 0 c 0.216,0.283 0.631,0.515 1.162,0.515 v 0 c 0.532,0 0.946,-0.232 1.162,-0.515 v 0 c 0.266,-0.348 0.433,-0.747 0.433,-2.906 v 0 c 0,-2.159 -0.167,-2.54 -0.433,-2.89 v 0 c -0.216,-0.281 -0.63,-0.531 -1.162,-0.531 v 0 c -0.531,0 -0.946,0.25 -1.162,0.531 M 94.726,60.04 C 93.48,58.794 93.531,57.133 93.531,55.356 v 0 c 0,-1.776 -0.051,-3.438 1.195,-4.683 v 0 c 0.864,-0.863 1.91,-1.329 3.288,-1.329 v 0 c 1.296,0 2.425,0.283 3.438,1.329 v 0 c 0.896,0.913 1.196,2.027 1.196,3.936 v 0 1.644 h -4.634 v -2.425 h 1.744 v -0.165 c 0,-0.449 -0.116,-0.931 -0.448,-1.263 v 0 c -0.266,-0.282 -0.682,-0.465 -1.296,-0.465 v 0 c -0.531,0 -0.93,0.216 -1.146,0.498 v 0 c -0.266,0.349 -0.431,0.764 -0.431,2.923 v 0 c 0,2.159 0.165,2.558 0.431,2.906 v 0 c 0.216,0.283 0.615,0.515 1.146,0.515 v 0 c 0.997,0 1.462,-0.431 1.694,-1.328 v 0 h 2.923 c -0.283,1.943 -1.578,3.919 -4.617,3.919 v 0 c -1.428,0 -2.424,-0.465 -3.288,-1.328 m -35.329,0 c -1.245,-1.246 -1.195,-2.907 -1.195,-4.684 v 0 c 0,-1.776 -0.05,-3.438 1.195,-4.683 v 0 c 0.863,-0.863 1.861,-1.329 3.305,-1.329 v 0 c 0.914,0 1.661,0.183 2.291,0.548 v 0 l 0.914,-0.913 1.478,1.478 -0.863,0.864 c 0.713,1.145 0.68,2.557 0.68,4.035 v 0 c 0,1.777 0.051,3.438 -1.195,4.684 v 0 c -0.863,0.863 -1.86,1.328 -3.305,1.328 v 0 c -1.444,0 -2.442,-0.465 -3.305,-1.328 m 2.142,-7.574 c -0.265,0.35 -0.431,0.731 -0.431,2.89 v 0 c 0,2.159 0.166,2.558 0.431,2.906 v 0 c 0.216,0.283 0.632,0.515 1.163,0.515 v 0 c 0.531,0 0.947,-0.232 1.163,-0.515 v 0 c 0.265,-0.348 0.431,-0.747 0.431,-2.906 v 0 c 0,-0.797 -0.032,-1.344 -0.066,-1.744 v 0 l -0.565,0.565 -1.478,-1.477 0.748,-0.748 c -0.083,-0.017 -0.15,-0.017 -0.233,-0.017 v 0 c -0.531,0 -0.947,0.25 -1.163,0.531 m 90.555,8.802 v -5.945 l -3.787,5.945 h -2.54 V 49.444 h 2.906 v 5.946 l 3.786,-5.946 H 155 v 11.824 z m -16.426,0 V 49.444 h 8.038 v 2.59 h -5.131 v 2.077 h 4.383 v 2.591 h -4.383 v 1.975 h 5.131 v 2.591 z m -10.812,0 V 49.444 h 4.383 c 1.229,0 2.375,0.348 3.189,1.163 v 0 c 1.379,1.378 1.228,2.889 1.228,4.749 v 0 c 0,1.861 0.151,3.372 -1.228,4.75 v 0 c -0.814,0.814 -1.96,1.162 -3.189,1.162 v 0 z m 2.906,-2.591 h 1.278 c 0.731,0 1.13,-0.265 1.395,-0.664 v 0 c 0.233,-0.332 0.316,-0.664 0.316,-2.657 v 0 c 0,-2.009 -0.083,-2.324 -0.316,-2.656 v 0 c -0.265,-0.399 -0.664,-0.666 -1.395,-0.666 v 0 h -1.278 z m -12.473,2.591 V 49.444 h 7.872 v 2.59 h -4.966 v 9.234 z m -29.434,0 -1.843,-4.251 -1.86,4.251 H 78.98 l 3.572,-7.008 v -4.816 h 2.906 v 4.816 l 3.569,7.008 z m -10.779,0 v -7.605 c 0,-1.097 -0.631,-1.728 -1.594,-1.728 v 0 c -0.963,0 -1.561,0.631 -1.561,1.728 v 0 7.605 h -2.906 v -7.672 c 0,-2.59 2.009,-4.252 4.467,-4.252 v 0 c 2.458,0 4.5,1.662 4.5,4.252 v 0 7.672 z m -25.429,0 -2.657,-5.214 -2.658,5.214 H 41.477 V 49.444 h 2.905 v 5.663 l 1.677,-2.922 h 1.861 l 1.676,2.922 v -5.663 h 2.906 V 61.268 Z M 36.178,49.444 h 2.906 v 11.824 h -2.906 z m -4.884,11.824 -3.421,-4.185 v 4.185 H 25 V 49.444 h 2.873 v 3.704 l 0.996,1.145 2.724,-4.849 h 3.387 l -4.168,7.042 4.035,4.782 z" /></g></g></g></g></g></svg>